<?xml version="1.0" standalone="no"?>
<!DOCTYPE svg PUBLIC "-//W3C//DTD SVG 20010904//EN"
 "http://www.w3.org/TR/2001/REC-SVG-20010904/DTD/svg10.dtd">
<svg version="1.0" xmlns="http://www.w3.org/2000/svg"
 width="203.000000pt" height="203.000000pt" viewBox="0 0 203.000000 203.000000"
 preserveAspectRatio="xMidYMid meet">
<metadata>
Created by potrace 1.11, written by Peter Selinger 2001-2013
</metadata>
<g transform="translate(0.000000,203.000000) scale(0.100000,-0.100000)"
fill="#000000" stroke="none">
<path d="M1494 1695 c-10 -19 -22 -35 -25 -35 -13 0 -2 -44 19 -82 11 -20 18
-39 15 -42 -4 -3 -1 -6 6 -6 7 0 9 -4 6 -10 -3 -5 -1 -10 6 -10 7 0 9 -3 6 -7
-4 -3 -3 -11 2 -17 6 -7 12 -23 15 -36 3 -14 12 -47 21 -75 23 -74 29 -126 28
-270 0 -138 -3 -168 -29 -267 -3 -13 -6 -29 -6 -35 -1 -7 -5 -13 -10 -13 -5 0
-6 -4 -3 -10 3 -5 1 -19 -5 -31 -7 -11 -9 -24 -5 -27 3 -3 8 4 12 16 3 12 9
22 12 22 4 0 8 6 8 13 1 14 26 80 33 87 5 5 8 16 15 53 2 9 6 21 9 25 5 9 14
49 21 95 2 15 7 47 11 70 8 51 8 107 -2 201 -4 39 -7 81 -8 94 0 12 -4 22 -8
22 -5 0 -8 10 -8 23 0 12 -9 46 -19 74 -10 29 -16 54 -13 57 3 3 0 6 -6 6 -7
0 -11 3 -10 8 1 4 -3 17 -10 28 -6 12 -8 24 -5 28 3 3 1 6 -6 6 -7 0 -9 5 -6
10 3 6 2 10 -3 10 -6 0 -15 14 -21 30 -5 17 -12 30 -14 30 -2 0 -12 -16 -23
-35z"/>
<path d="M861 1500 c-4 -3 -124 -158 -266 -345 -142 -187 -301 -395 -352 -462
l-94 -123 154 0 153 0 169 248 c285 416 347 507 359 520 9 9 12 4 12 -25 1
-49 14 -303 19 -368 2 -27 7 -113 11 -190 4 -77 7 -149 8 -160 1 -19 9 -20
135 -23 l133 -3 -6 63 c-12 108 -15 139 -31 283 -9 77 -18 158 -21 180 -2 22
-6 56 -9 75 -2 19 -7 60 -10 90 -3 30 -8 71 -10 90 -2 19 -7 60 -10 90 -4 30
-9 57 -12 60 -6 7 -322 7 -332 0z"/>
<path d="M1792 1299 c-17 -16 -35 -29 -39 -29 -4 0 -9 -39 -9 -88 -1 -85 -10
-167 -19 -181 -2 -4 -7 -21 -10 -37 -10 -47 -10 -48 -18 -61 -5 -7 -5 -13 -1
-13 3 0 1 -7 -6 -15 -7 -8 -9 -15 -5 -15 4 0 2 -7 -5 -15 -7 -8 -9 -15 -6 -15
4 0 0 -7 -8 -16 -9 -8 -16 -22 -16 -31 0 -8 -9 -27 -19 -42 -11 -15 -21 -34
-23 -42 -2 -8 -5 -16 -8 -19 -3 -3 -21 -25 -40 -50 -19 -25 -38 -46 -42 -48
-5 -2 -8 -7 -8 -12 0 -17 -155 -161 -164 -152 -3 3 -8 -3 -12 -12 -3 -9 -12
-16 -19 -16 -7 0 -15 -7 -19 -15 -3 -8 -14 -15 -24 -15 -10 0 -27 -8 -38 -17
-11 -10 -26 -19 -34 -21 -8 -2 -17 -7 -20 -10 -3 -4 -10 -8 -15 -9 -6 -1 -33
-11 -62 -22 -28 -11 -54 -17 -57 -14 -3 4 -6 2 -6 -4 0 -5 -7 -10 -15 -11 -8
-1 -22 -3 -30 -4 -18 -2 -20 -18 -2 -18 6 1 38 7 70 15 31 7 58 13 60 13 21 2
163 57 168 65 3 5 8 8 10 7 9 -3 45 15 57 29 10 12 12 13 6 1 -5 -10 1 -8 18
5 14 11 36 27 48 35 13 8 32 23 42 33 10 9 20 16 21 15 6 -4 103 91 145 142
20 24 30 40 22 35 -10 -5 -9 -1 3 11 40 42 56 67 51 75 -3 5 -1 9 4 9 9 0 48
71 43 79 -2 2 2 7 7 10 9 6 46 104 47 126 1 6 5 21 10 35 4 14 9 34 11 45 2
11 6 38 9 60 4 22 8 72 9 112 5 137 -9 162 -62 112z"/>
<path d="M857 973 c-1 0 -18 -3 -37 -4 -26 -3 -40 -11 -54 -34 -10 -16 -19
-32 -19 -35 0 -3 -8 -11 -19 -18 -10 -7 -16 -17 -13 -22 3 -4 0 -10 -7 -12 -6
-2 49 -4 123 -4 l136 0 -4 55 c-2 31 -8 60 -13 64 -6 7 -87 16 -93 10z"/>
<path d="M1935 800 c-11 -5 -38 -14 -61 -20 -33 -8 -43 -16 -54 -45 -8 -19
-18 -35 -24 -35 -5 0 -6 -3 -3 -6 8 -8 -24 -64 -36 -64 -4 0 -5 -4 -2 -10 3
-5 1 -10 -4 -10 -6 0 -10 -4 -8 -9 1 -5 -7 -17 -18 -26 -11 -9 -13 -14 -5 -10
10 4 9 2 -2 -8 -10 -8 -18 -18 -18 -22 0 -13 -180 -186 -188 -181 -5 3 -14 -4
-22 -14 -8 -10 -17 -17 -22 -14 -4 3 -8 1 -8 -4 0 -10 -138 -82 -163 -86 -7
-1 -23 -8 -35 -15 -13 -7 -26 -10 -29 -7 -3 2 -17 0 -32 -6 -72 -27 -250 -43
-331 -28 -22 4 -40 3 -40 -1 0 -5 8 -9 18 -10 9 0 26 -3 37 -5 66 -15 249 -25
270 -14 10 5 18 6 75 14 38 6 73 13 78 16 2 3 2 3 47 15 17 4 35 11 40 16 6 4
13 8 17 9 4 0 25 8 45 17 21 9 41 16 46 15 4 -1 7 3 7 9 0 5 5 7 10 4 6 -3 13
1 16 9 3 9 10 13 15 10 5 -3 9 -1 9 5 0 6 15 18 33 27 17 10 37 24 44 33 7 9
13 12 13 6 0 -5 7 1 16 13 8 12 21 19 27 16 7 -4 9 -4 5 0 -9 11 23 46 35 39
6 -3 8 -2 5 3 -8 12 17 35 28 26 4 -4 4 -2 1 4 -3 6 2 17 11 26 9 8 26 28 37
43 11 16 26 34 33 42 7 7 10 13 6 13 -4 0 4 13 19 28 15 16 25 31 22 34 -3 3
8 31 25 61 17 31 31 59 30 62 0 3 0 6 1 8 2 8 7 37 6 36 -1 0 -11 -4 -22 -9z"/>
<path d="M926 231 c-3 -4 6 -6 19 -3 14 2 25 6 25 8 0 8 -39 4 -44 -5z"/>
</g>
</svg>
